<mxfile host="65bd71144e">
    <diagram id="l51gz38veG-2EYmCxRWn" name="第 1 页">
        <mxGraphModel dx="798" dy="695" grid="0" gridSize="10" guides="1" tooltips="1" connect="1" arrows="1" fold="1" page="1" pageScale="1" pageWidth="1169" pageHeight="827" background="#ffffff" math="0" shadow="0">
            <root>
                <mxCell id="0"/>
                <mxCell id="1" parent="0"/>
                <mxCell id="176" value="" style="whiteSpace=wrap;html=1;fontSize=12;fontColor=#ffffff;strokeColor=#006EAF;strokeWidth=2;fillColor=none;" parent="1" vertex="1">
                    <mxGeometry x="912" y="275.5" width="69" height="96.5" as="geometry"/>
                </mxCell>
                <mxCell id="132" value="" style="endArrow=classic;html=1;rounded=0;fontSize=9;fontColor=#000000;strokeColor=#000000;entryX=0.008;entryY=0.16;entryDx=0;entryDy=0;entryPerimeter=0;" parent="1" target="164" edge="1">
                    <mxGeometry width="50" height="50" relative="1" as="geometry">
                        <mxPoint x="630" y="270" as="sourcePoint"/>
                        <mxPoint x="760" y="270" as="targetPoint"/>
                    </mxGeometry>
                </mxCell>
                <mxCell id="152" value="" style="rounded=0;whiteSpace=wrap;html=1;fontSize=9;fontColor=#ffffff;strokeColor=#006EAF;strokeWidth=2;fillColor=none;" parent="1" vertex="1">
                    <mxGeometry x="529" y="155" width="208" height="216" as="geometry"/>
                </mxCell>
                <mxCell id="240" value="" style="endArrow=none;html=1;rounded=0;fontSize=9;fontColor=#000000;strokeColor=#000000;entryDx=0;entryDy=0;entryPerimeter=0;" parent="1" target="239" edge="1">
                    <mxGeometry width="50" height="50" relative="1" as="geometry">
                        <mxPoint x="630" y="260" as="sourcePoint"/>
                        <mxPoint x="849" y="197.125" as="targetPoint"/>
                        <Array as="points"/>
                    </mxGeometry>
                </mxCell>
                <mxCell id="131" value="" style="endArrow=classic;html=1;rounded=0;fontSize=9;fontColor=#000000;strokeColor=#000000;entryX=0;entryY=0.75;entryDx=0;entryDy=0;entryPerimeter=0;startArrow=none;" parent="1" source="239" target="157" edge="1">
                    <mxGeometry width="50" height="50" relative="1" as="geometry">
                        <mxPoint x="630" y="260" as="sourcePoint"/>
                        <mxPoint x="760" y="260" as="targetPoint"/>
                        <Array as="points">
                            <mxPoint x="760" y="260"/>
                            <mxPoint x="833" y="260"/>
                            <mxPoint x="833" y="197"/>
                        </Array>
                    </mxGeometry>
                </mxCell>
                <mxCell id="228" value="" style="shape=waypoint;sketch=0;size=6;pointerEvents=1;points=[];fillColor=#1ba1e2;resizable=0;rotatable=0;perimeter=centerPerimeter;snapToPoint=1;fontSize=12;fontColor=#ffffff;strokeColor=#006EAF;strokeWidth=1;" parent="1" vertex="1">
                    <mxGeometry x="726" y="240" width="40" height="40" as="geometry"/>
                </mxCell>
                <mxCell id="233" value="" style="shape=waypoint;sketch=0;size=6;pointerEvents=1;points=[];fillColor=#1ba1e2;resizable=0;rotatable=0;perimeter=centerPerimeter;snapToPoint=1;fontSize=12;fontColor=#ffffff;strokeColor=#FF0000;strokeWidth=1;" parent="1" vertex="1">
                    <mxGeometry x="726" y="226.5" width="40" height="40" as="geometry"/>
                </mxCell>
                <mxCell id="229" value="" style="shape=waypoint;sketch=0;size=6;pointerEvents=1;points=[];fillColor=#1ba1e2;resizable=0;rotatable=0;perimeter=centerPerimeter;snapToPoint=1;fontSize=12;fontColor=#ffffff;strokeColor=#006EAF;strokeWidth=1;" parent="1" vertex="1">
                    <mxGeometry x="726" y="250" width="40" height="40" as="geometry"/>
                </mxCell>
                <mxCell id="174" value="" style="rounded=0;whiteSpace=wrap;html=1;fontSize=12;fontColor=#ffffff;strokeColor=#006EAF;strokeWidth=2;fillColor=none;" parent="1" vertex="1">
                    <mxGeometry x="746" y="155.5" width="158" height="215.5" as="geometry"/>
                </mxCell>
                <mxCell id="170" value="" style="shape=waypoint;sketch=0;size=6;pointerEvents=1;points=[];fillColor=none;resizable=0;rotatable=0;perimeter=centerPerimeter;snapToPoint=1;fontSize=12;fontColor=#000000;strokeColor=#000000;strokeWidth=0;" parent="1" vertex="1">
                    <mxGeometry x="734" y="250" width="40" height="40" as="geometry"/>
                </mxCell>
                <mxCell id="180" value="&lt;b&gt;MEM&lt;/b&gt;" style="text;html=1;align=center;verticalAlign=middle;resizable=0;points=[];autosize=1;strokeColor=none;fillColor=none;fontSize=20;fontColor=#3399FF;" parent="1" vertex="1">
                    <mxGeometry x="844" y="372.5" width="57" height="28" as="geometry"/>
                </mxCell>
                <mxCell id="125" value="" style="rounded=0;whiteSpace=wrap;html=1;fontSize=9;fontColor=#ffffff;strokeColor=#006EAF;fillColor=none;strokeWidth=2;" parent="1" vertex="1">
                    <mxGeometry x="78" y="190" width="200" height="170" as="geometry"/>
                </mxCell>
                <mxCell id="126" value="" style="rounded=0;whiteSpace=wrap;html=1;fontSize=9;fontColor=#ffffff;strokeColor=#006EAF;fillColor=none;strokeWidth=2;" parent="1" vertex="1">
                    <mxGeometry x="287.5" y="190" width="215" height="170" as="geometry"/>
                </mxCell>
                <mxCell id="16" value="" style="edgeStyle=none;rounded=0;html=1;fontSize=12;fontColor=#000000;strokeColor=#000000;" parent="1" source="2" target="15" edge="1">
                    <mxGeometry relative="1" as="geometry"/>
                </mxCell>
                <mxCell id="18" value="" style="edgeStyle=none;rounded=0;html=1;fontSize=12;fontColor=#000000;strokeColor=#000000;startArrow=none;" parent="1" source="19" target="15" edge="1">
                    <mxGeometry relative="1" as="geometry"/>
                </mxCell>
                <mxCell id="2" value="&lt;font color=&quot;#000000&quot;&gt;PC&lt;/font&gt;" style="rounded=0;whiteSpace=wrap;html=1;fillColor=none;strokeColor=#000000;" parent="1" vertex="1">
                    <mxGeometry x="90" y="200" width="40" height="60" as="geometry"/>
                </mxCell>
                <mxCell id="4" value="" style="endArrow=none;html=1;fontColor=#000000;rounded=0;strokeColor=#000000;" parent="1" edge="1">
                    <mxGeometry width="50" height="50" relative="1" as="geometry">
                        <mxPoint x="160" y="310" as="sourcePoint"/>
                        <mxPoint x="160" y="290" as="targetPoint"/>
                    </mxGeometry>
                </mxCell>
                <mxCell id="5" value="" style="endArrow=none;html=1;fontColor=#000000;rounded=0;strokeColor=#000000;" parent="1" edge="1">
                    <mxGeometry width="50" height="50" relative="1" as="geometry">
                        <mxPoint x="170" y="320" as="sourcePoint"/>
                        <mxPoint x="160" y="310" as="targetPoint"/>
                    </mxGeometry>
                </mxCell>
                <mxCell id="6" value="" style="endArrow=none;html=1;rounded=0;fontColor=#000000;strokeColor=#000000;" parent="1" edge="1">
                    <mxGeometry width="50" height="50" relative="1" as="geometry">
                        <mxPoint x="160" y="330" as="sourcePoint"/>
                        <mxPoint x="170" y="320" as="targetPoint"/>
                    </mxGeometry>
                </mxCell>
                <mxCell id="7" value="" style="endArrow=none;html=1;rounded=0;fontColor=#000000;strokeColor=#000000;" parent="1" edge="1">
                    <mxGeometry width="50" height="50" relative="1" as="geometry">
                        <mxPoint x="160" y="350" as="sourcePoint"/>
                        <mxPoint x="160" y="330" as="targetPoint"/>
                    </mxGeometry>
                </mxCell>
                <mxCell id="8" value="" style="endArrow=none;html=1;rounded=0;fontColor=#000000;strokeColor=#000000;" parent="1" edge="1">
                    <mxGeometry width="50" height="50" relative="1" as="geometry">
                        <mxPoint x="190" y="310" as="sourcePoint"/>
                        <mxPoint x="160" y="290" as="targetPoint"/>
                    </mxGeometry>
                </mxCell>
                <mxCell id="9" value="" style="endArrow=none;html=1;rounded=0;fontColor=#000000;strokeColor=#000000;" parent="1" edge="1">
                    <mxGeometry width="50" height="50" relative="1" as="geometry">
                        <mxPoint x="160" y="350" as="sourcePoint"/>
                        <mxPoint x="190" y="330" as="targetPoint"/>
                    </mxGeometry>
                </mxCell>
                <mxCell id="10" value="" style="endArrow=none;html=1;rounded=0;fontColor=#000000;strokeColor=#000000;" parent="1" edge="1">
                    <mxGeometry width="50" height="50" relative="1" as="geometry">
                        <mxPoint x="190" y="330" as="sourcePoint"/>
                        <mxPoint x="190" y="310" as="targetPoint"/>
                    </mxGeometry>
                </mxCell>
                <mxCell id="11" value="&lt;font style=&quot;font-size: 10px&quot;&gt;PCAdder&lt;/font&gt;" style="text;html=1;align=center;verticalAlign=middle;resizable=0;points=[];autosize=1;strokeColor=none;fillColor=none;fontColor=#000000;" parent="1" vertex="1">
                    <mxGeometry x="170" y="340" width="60" height="20" as="geometry"/>
                </mxCell>
                <mxCell id="13" value="" style="endArrow=classic;html=1;rounded=0;fontSize=10;fontColor=#000000;strokeColor=#000000;" parent="1" edge="1">
                    <mxGeometry width="50" height="50" relative="1" as="geometry">
                        <mxPoint x="140" y="340" as="sourcePoint"/>
                        <mxPoint x="160" y="340" as="targetPoint"/>
                    </mxGeometry>
                </mxCell>
                <mxCell id="14" value="4" style="text;html=1;align=center;verticalAlign=middle;resizable=0;points=[];autosize=1;strokeColor=none;fillColor=none;fontSize=10;fontColor=#000000;" parent="1" vertex="1">
                    <mxGeometry x="120" y="330" width="20" height="20" as="geometry"/>
                </mxCell>
                <mxCell id="15" value="&lt;font style=&quot;font-size: 12px&quot;&gt;Inst&lt;br&gt;Mem&lt;/font&gt;" style="rounded=0;whiteSpace=wrap;html=1;fontSize=10;fontColor=#000000;strokeColor=#000000;fillColor=none;" parent="1" vertex="1">
                    <mxGeometry x="160" y="200" width="50" height="60" as="geometry"/>
                </mxCell>
                <mxCell id="17" value="" style="endArrow=classic;html=1;rounded=0;fontSize=12;fontColor=#000000;strokeColor=#000000;exitX=0.55;exitY=0.57;exitDx=0;exitDy=0;exitPerimeter=0;" parent="1" source="19" edge="1">
                    <mxGeometry width="50" height="50" relative="1" as="geometry">
                        <mxPoint x="140" y="230" as="sourcePoint"/>
                        <mxPoint x="160" y="300" as="targetPoint"/>
                        <Array as="points">
                            <mxPoint x="140" y="300"/>
                        </Array>
                    </mxGeometry>
                </mxCell>
                <mxCell id="19" value="" style="shape=waypoint;sketch=0;size=6;pointerEvents=1;points=[];fillColor=none;resizable=0;rotatable=0;perimeter=centerPerimeter;snapToPoint=1;fontSize=12;fontColor=#000000;strokeColor=#000000;" parent="1" vertex="1">
                    <mxGeometry x="120" y="210" width="40" height="40" as="geometry"/>
                </mxCell>
                <mxCell id="20" value="" style="edgeStyle=none;rounded=0;html=1;fontSize=12;fontColor=#000000;strokeColor=#000000;endArrow=none;" parent="1" source="2" target="19" edge="1">
                    <mxGeometry relative="1" as="geometry">
                        <mxPoint x="120" y="230" as="sourcePoint"/>
                        <mxPoint x="160" y="230" as="targetPoint"/>
                    </mxGeometry>
                </mxCell>
                <mxCell id="21" value="IR" style="rounded=0;whiteSpace=wrap;html=1;fontSize=12;fontColor=#000000;strokeColor=#000000;fillColor=none;" parent="1" vertex="1">
                    <mxGeometry x="230" y="220" width="20" height="20" as="geometry"/>
                </mxCell>
                <mxCell id="25" value="" style="endArrow=classic;html=1;rounded=0;fontSize=12;fontColor=#000000;strokeColor=#000000;exitX=1;exitY=0.5;exitDx=0;exitDy=0;entryX=0;entryY=0.5;entryDx=0;entryDy=0;" parent="1" source="15" target="21" edge="1">
                    <mxGeometry width="50" height="50" relative="1" as="geometry">
                        <mxPoint x="170" y="230" as="sourcePoint"/>
                        <mxPoint x="220" y="180" as="targetPoint"/>
                    </mxGeometry>
                </mxCell>
                <mxCell id="27" value="Inst&lt;br&gt;Slice" style="rounded=0;whiteSpace=wrap;html=1;fontSize=12;fontColor=#000000;strokeColor=#000000;fillColor=none;" parent="1" vertex="1">
                    <mxGeometry x="300" y="240" width="50" height="60" as="geometry"/>
                </mxCell>
                <mxCell id="28" value="" style="endArrow=classic;html=1;rounded=0;fontSize=12;fontColor=#000000;strokeColor=#000000;exitX=0.947;exitY=0.235;exitDx=0;exitDy=0;exitPerimeter=0;entryX=0;entryY=0.5;entryDx=0;entryDy=0;" parent="1" target="27" edge="1">
                    <mxGeometry width="50" height="50" relative="1" as="geometry">
                        <mxPoint x="249.93000000000006" y="229.95000000000005" as="sourcePoint"/>
                        <mxPoint x="320" y="160" as="targetPoint"/>
                        <Array as="points">
                            <mxPoint x="270" y="230"/>
                            <mxPoint x="270" y="270"/>
                        </Array>
                    </mxGeometry>
                </mxCell>
                <mxCell id="30" value="" style="endArrow=none;html=1;rounded=0;fontSize=12;fontColor=#000000;strokeColor=#000000;exitX=1;exitY=0.5;exitDx=0;exitDy=0;" parent="1" source="27" edge="1">
                    <mxGeometry width="50" height="50" relative="1" as="geometry">
                        <mxPoint x="250" y="240" as="sourcePoint"/>
                        <mxPoint x="360" y="270" as="targetPoint"/>
                    </mxGeometry>
                </mxCell>
                <mxCell id="31" value="" style="endArrow=none;html=1;rounded=0;fontSize=12;fontColor=#000000;strokeColor=#000000;startArrow=none;edgeStyle=orthogonalEdgeStyle;entryX=0.499;entryY=-0.009;entryDx=0;entryDy=0;entryPerimeter=0;" parent="1" source="39" target="39" edge="1">
                    <mxGeometry width="50" height="50" relative="1" as="geometry">
                        <mxPoint x="360" y="320" as="sourcePoint"/>
                        <mxPoint x="360" y="200" as="targetPoint"/>
                    </mxGeometry>
                </mxCell>
                <mxCell id="32" value="Reg&lt;br&gt;File" style="rounded=0;whiteSpace=wrap;html=1;fontSize=12;fontColor=#000000;strokeColor=#000000;fillColor=none;" parent="1" vertex="1">
                    <mxGeometry x="410" y="220" width="65" height="60" as="geometry"/>
                </mxCell>
                <mxCell id="33" value="" style="endArrow=classic;html=1;rounded=0;fontSize=12;fontColor=#000000;strokeColor=#000000;startArrow=none;exitX=0.551;exitY=0.553;exitDx=0;exitDy=0;exitPerimeter=0;" parent="1" source="39" edge="1">
                    <mxGeometry width="50" height="50" relative="1" as="geometry">
                        <mxPoint x="360" y="230" as="sourcePoint"/>
                        <mxPoint x="410" y="230" as="targetPoint"/>
                    </mxGeometry>
                </mxCell>
                <mxCell id="34" value="" style="endArrow=classic;html=1;rounded=0;fontSize=12;fontColor=#000000;strokeColor=#000000;entryX=0;entryY=0.5;entryDx=0;entryDy=0;" parent="1" target="32" edge="1">
                    <mxGeometry width="50" height="50" relative="1" as="geometry">
                        <mxPoint x="360" y="250" as="sourcePoint"/>
                        <mxPoint x="410" y="220" as="targetPoint"/>
                    </mxGeometry>
                </mxCell>
                <mxCell id="35" value="" style="endArrow=classic;html=1;rounded=0;fontSize=12;fontColor=#000000;strokeColor=#000000;" parent="1" edge="1">
                    <mxGeometry width="50" height="50" relative="1" as="geometry">
                        <mxPoint x="360" y="270" as="sourcePoint"/>
                        <mxPoint x="410" y="270" as="targetPoint"/>
                    </mxGeometry>
                </mxCell>
                <mxCell id="36" value="&lt;font style=&quot;font-size: 9px&quot;&gt;rs&lt;/font&gt;" style="text;html=1;align=center;verticalAlign=middle;resizable=0;points=[];autosize=1;strokeColor=none;fillColor=none;fontSize=12;fontColor=#000000;" parent="1" vertex="1">
                    <mxGeometry x="357" y="210" width="20" height="20" as="geometry"/>
                </mxCell>
                <mxCell id="37" value="rt" style="text;html=1;align=center;verticalAlign=middle;resizable=0;points=[];autosize=1;strokeColor=none;fillColor=none;fontSize=9;fontColor=#000000;" parent="1" vertex="1">
                    <mxGeometry x="359" y="235" width="16" height="15" as="geometry"/>
                </mxCell>
                <mxCell id="38" value="rd" style="text;html=1;align=center;verticalAlign=middle;resizable=0;points=[];autosize=1;strokeColor=none;fillColor=none;fontSize=9;fontColor=#000000;" parent="1" vertex="1">
                    <mxGeometry x="358" y="257" width="18" height="15" as="geometry"/>
                </mxCell>
                <mxCell id="40" value="" style="endArrow=none;html=1;rounded=0;fontSize=12;fontColor=#000000;strokeColor=#000000;" parent="1" target="39" edge="1">
                    <mxGeometry width="50" height="50" relative="1" as="geometry">
                        <mxPoint x="360" y="230" as="sourcePoint"/>
                        <mxPoint x="410" y="230" as="targetPoint"/>
                    </mxGeometry>
                </mxCell>
                <mxCell id="41" value="" style="shape=waypoint;sketch=0;size=6;pointerEvents=1;points=[];fillColor=none;resizable=0;rotatable=0;perimeter=centerPerimeter;snapToPoint=1;fontSize=9;fontColor=#000000;strokeColor=#000000;" parent="1" vertex="1">
                    <mxGeometry x="340" y="230" width="40" height="40" as="geometry"/>
                </mxCell>
                <mxCell id="42" value="" style="shape=waypoint;sketch=0;size=6;pointerEvents=1;points=[];fillColor=none;resizable=0;rotatable=0;perimeter=centerPerimeter;snapToPoint=1;fontSize=9;fontColor=#000000;strokeColor=#000000;" parent="1" vertex="1">
                    <mxGeometry x="340" y="250" width="40" height="40" as="geometry"/>
                </mxCell>
                <mxCell id="43" value="Sig-Ext" style="rounded=0;whiteSpace=wrap;html=1;fontSize=9;fontColor=#000000;strokeColor=#000000;fillColor=none;" parent="1" vertex="1">
                    <mxGeometry x="427.5" y="290" width="42.5" height="20" as="geometry"/>
                </mxCell>
                <mxCell id="44" value="" style="endArrow=classic;html=1;rounded=0;fontSize=9;fontColor=#000000;strokeColor=#000000;entryX=0;entryY=0.5;entryDx=0;entryDy=0;" parent="1" target="43" edge="1">
                    <mxGeometry width="50" height="50" relative="1" as="geometry">
                        <mxPoint x="360" y="290" as="sourcePoint"/>
                        <mxPoint x="420" y="250" as="targetPoint"/>
                        <Array as="points">
                            <mxPoint x="410" y="290"/>
                            <mxPoint x="410" y="300"/>
                        </Array>
                    </mxGeometry>
                </mxCell>
                <mxCell id="45" value="" style="shape=waypoint;sketch=0;size=6;pointerEvents=1;points=[];fillColor=none;resizable=0;rotatable=0;perimeter=centerPerimeter;snapToPoint=1;fontSize=9;fontColor=#000000;strokeColor=#000000;" parent="1" vertex="1">
                    <mxGeometry x="340" y="270" width="40" height="40" as="geometry"/>
                </mxCell>
                <mxCell id="46" value="" style="endArrow=none;html=1;rounded=0;fontSize=12;fontColor=#000000;strokeColor=#000000;" parent="1" target="45" edge="1">
                    <mxGeometry width="50" height="50" relative="1" as="geometry">
                        <mxPoint x="360" y="310" as="sourcePoint"/>
                        <mxPoint x="360" y="220" as="targetPoint"/>
                    </mxGeometry>
                </mxCell>
                <mxCell id="47" value="" style="endArrow=classic;html=1;rounded=0;fontSize=9;fontColor=#000000;strokeColor=#000000;entryX=0.5;entryY=0;entryDx=0;entryDy=0;" parent="1" target="48" edge="1">
                    <mxGeometry width="50" height="50" relative="1" as="geometry">
                        <mxPoint x="360" y="310" as="sourcePoint"/>
                        <mxPoint x="320" y="320" as="targetPoint"/>
                        <Array as="points">
                            <mxPoint x="320" y="310"/>
                        </Array>
                    </mxGeometry>
                </mxCell>
                <mxCell id="48" value="ALU-CU" style="rounded=0;whiteSpace=wrap;html=1;fontSize=9;fontColor=#000000;strokeColor=#000000;fillColor=none;" parent="1" vertex="1">
                    <mxGeometry x="300" y="320" width="40" height="20" as="geometry"/>
                </mxCell>
                <mxCell id="49" value="" style="endArrow=classic;html=1;rounded=0;fontSize=9;fontColor=#000000;strokeColor=#000000;exitX=1.005;exitY=0.334;exitDx=0;exitDy=0;exitPerimeter=0;" parent="1" source="32" edge="1">
                    <mxGeometry width="50" height="50" relative="1" as="geometry">
                        <mxPoint x="360" y="350" as="sourcePoint"/>
                        <mxPoint x="600" y="240" as="targetPoint"/>
                        <Array as="points">
                            <mxPoint x="530" y="240"/>
                        </Array>
                    </mxGeometry>
                </mxCell>
                <mxCell id="50" value="" style="endArrow=classic;html=1;rounded=0;fontSize=9;fontColor=#000000;strokeColor=#000000;exitX=1.006;exitY=0.668;exitDx=0;exitDy=0;exitPerimeter=0;entryX=-0.001;entryY=0.318;entryDx=0;entryDy=0;entryPerimeter=0;" parent="1" source="32" target="84" edge="1">
                    <mxGeometry width="50" height="50" relative="1" as="geometry">
                        <mxPoint x="430" y="290" as="sourcePoint"/>
                        <mxPoint x="560" y="290" as="targetPoint"/>
                        <Array as="points">
                            <mxPoint x="546" y="260"/>
                            <mxPoint x="546" y="310"/>
                        </Array>
                    </mxGeometry>
                </mxCell>
                <mxCell id="51" value="" style="endArrow=classic;html=1;rounded=0;fontSize=9;fontColor=#000000;strokeColor=#000000;exitDx=0;exitDy=0;startArrow=none;entryX=-0.02;entryY=0.639;entryDx=0;entryDy=0;entryPerimeter=0;" parent="1" source="109" target="84" edge="1">
                    <mxGeometry width="50" height="50" relative="1" as="geometry">
                        <mxPoint x="380" y="322.5" as="sourcePoint"/>
                        <mxPoint x="560" y="322.5" as="targetPoint"/>
                    </mxGeometry>
                </mxCell>
                <mxCell id="52" value="" style="endArrow=classic;html=1;rounded=0;fontSize=9;fontColor=#000000;strokeColor=#000000;exitX=1;exitY=0.5;exitDx=0;exitDy=0;" parent="1" source="48" edge="1">
                    <mxGeometry width="50" height="50" relative="1" as="geometry">
                        <mxPoint x="390" y="270" as="sourcePoint"/>
                        <mxPoint x="610" y="285" as="targetPoint"/>
                        <Array as="points">
                            <mxPoint x="534" y="330"/>
                            <mxPoint x="534" y="340"/>
                            <mxPoint x="610" y="340"/>
                        </Array>
                    </mxGeometry>
                </mxCell>
                <mxCell id="39" value="" style="shape=waypoint;sketch=0;size=6;pointerEvents=1;points=[];fillColor=none;resizable=0;rotatable=0;perimeter=centerPerimeter;snapToPoint=1;fontSize=9;fontColor=#000000;strokeColor=none;" parent="1" vertex="1">
                    <mxGeometry x="340" y="210" width="40" height="40" as="geometry"/>
                </mxCell>
                <mxCell id="54" value="" style="endArrow=none;html=1;rounded=0;fontSize=12;fontColor=#000000;strokeColor=#000000;startArrow=none;" parent="1" source="45" target="39" edge="1">
                    <mxGeometry width="50" height="50" relative="1" as="geometry">
                        <mxPoint x="360.0000000000001" y="290" as="sourcePoint"/>
                        <mxPoint x="360.0000000000001" y="190" as="targetPoint"/>
                    </mxGeometry>
                </mxCell>
                <mxCell id="56" value="" style="endArrow=classic;html=1;rounded=0;fontSize=9;fontColor=#000000;strokeColor=#000000;exitX=0.992;exitY=0.505;exitDx=0;exitDy=0;exitPerimeter=0;entryX=0;entryY=0.5;entryDx=0;entryDy=0;" parent="1" source="39" target="183" edge="1">
                    <mxGeometry width="50" height="50" relative="1" as="geometry">
                        <mxPoint x="380" y="290" as="sourcePoint"/>
                        <mxPoint x="365" y="74" as="targetPoint"/>
                        <Array as="points">
                            <mxPoint x="360" y="54"/>
                        </Array>
                    </mxGeometry>
                </mxCell>
                <mxCell id="57" value="" style="shape=waypoint;sketch=0;size=6;pointerEvents=1;points=[];fillColor=none;resizable=0;rotatable=0;perimeter=centerPerimeter;snapToPoint=1;fontSize=9;fontColor=#000000;strokeColor=#000000;" parent="1" vertex="1">
                    <mxGeometry x="340" y="210" width="40" height="40" as="geometry"/>
                </mxCell>
                <mxCell id="59" value="opcode" style="text;html=1;align=center;verticalAlign=middle;resizable=0;points=[];autosize=1;strokeColor=none;fillColor=none;fontSize=9;fontColor=#000000;" parent="1" vertex="1">
                    <mxGeometry x="352" y="170" width="50" height="20" as="geometry"/>
                </mxCell>
                <mxCell id="60" value="" style="endArrow=classic;html=1;rounded=0;fontSize=9;fontColor=#000000;strokeColor=#000000;startArrow=none;entryX=0;entryY=0.5;entryDx=0;entryDy=0;" parent="1" source="62" target="88" edge="1">
                    <mxGeometry width="50" height="50" relative="1" as="geometry">
                        <mxPoint x="360" y="309" as="sourcePoint"/>
                        <mxPoint x="540" y="220" as="targetPoint"/>
                        <Array as="points">
                            <mxPoint x="360" y="320"/>
                            <mxPoint x="523" y="320"/>
                            <mxPoint x="523" y="220"/>
                        </Array>
                    </mxGeometry>
                </mxCell>
                <mxCell id="62" value="" style="shape=waypoint;sketch=0;size=6;pointerEvents=1;points=[];fillColor=none;resizable=0;rotatable=0;perimeter=centerPerimeter;snapToPoint=1;fontSize=9;fontColor=#000000;strokeColor=#000000;" parent="1" vertex="1">
                    <mxGeometry x="340" y="290" width="40" height="40" as="geometry"/>
                </mxCell>
                <mxCell id="63" value="" style="endArrow=none;html=1;rounded=0;fontSize=9;fontColor=#000000;strokeColor=#000000;" parent="1" target="62" edge="1">
                    <mxGeometry width="50" height="50" relative="1" as="geometry">
                        <mxPoint x="360" y="309" as="sourcePoint"/>
                        <mxPoint x="510" y="320" as="targetPoint"/>
                        <Array as="points"/>
                    </mxGeometry>
                </mxCell>
                <mxCell id="64" value="offset" style="text;html=1;align=center;verticalAlign=middle;resizable=0;points=[];autosize=1;strokeColor=none;fillColor=none;fontSize=9;fontColor=#000000;" parent="1" vertex="1">
                    <mxGeometry x="352" y="274" width="40" height="20" as="geometry"/>
                </mxCell>
                <mxCell id="65" value="index" style="text;html=1;align=center;verticalAlign=middle;resizable=0;points=[];autosize=1;strokeColor=none;fillColor=none;fontSize=9;fontColor=#000000;" parent="1" vertex="1">
                    <mxGeometry x="358" y="305" width="32" height="15" as="geometry"/>
                </mxCell>
                <mxCell id="66" value="func-code" style="text;html=1;align=center;verticalAlign=middle;resizable=0;points=[];autosize=1;strokeColor=none;fillColor=none;fontSize=9;fontColor=#000000;" parent="1" vertex="1">
                    <mxGeometry x="308" y="295" width="60" height="20" as="geometry"/>
                </mxCell>
                <mxCell id="68" value="mode" style="text;html=1;align=center;verticalAlign=middle;resizable=0;points=[];autosize=1;strokeColor=none;fillColor=none;fontSize=9;fontColor=#000000;" parent="1" vertex="1">
                    <mxGeometry x="470.5" y="330" width="33" height="15" as="geometry"/>
                </mxCell>
                <mxCell id="69" value="imm" style="text;html=1;align=center;verticalAlign=middle;resizable=0;points=[];autosize=1;strokeColor=none;fillColor=none;fontSize=9;fontColor=#000000;" parent="1" vertex="1">
                    <mxGeometry x="473" y="285" width="27" height="15" as="geometry"/>
                </mxCell>
                <mxCell id="70" value="index" style="text;html=1;align=center;verticalAlign=middle;resizable=0;points=[];autosize=1;strokeColor=none;fillColor=none;fontSize=9;fontColor=#000000;" parent="1" vertex="1">
                    <mxGeometry x="470.5" y="305" width="32" height="15" as="geometry"/>
                </mxCell>
                <mxCell id="71" value="B" style="text;html=1;align=center;verticalAlign=middle;resizable=0;points=[];autosize=1;strokeColor=none;fillColor=none;fontSize=9;fontColor=#000000;" parent="1" vertex="1">
                    <mxGeometry x="478.5" y="245" width="16" height="15" as="geometry"/>
                </mxCell>
                <mxCell id="72" value="A" style="text;html=1;align=center;verticalAlign=middle;resizable=0;points=[];autosize=1;strokeColor=none;fillColor=none;fontSize=9;fontColor=#000000;" parent="1" vertex="1">
                    <mxGeometry x="478.5" y="225" width="16" height="15" as="geometry"/>
                </mxCell>
                <mxCell id="73" value="" style="endArrow=classic;html=1;rounded=0;fontSize=9;fontColor=#000000;strokeColor=#000000;" parent="1" edge="1">
                    <mxGeometry width="50" height="50" relative="1" as="geometry">
                        <mxPoint x="190" y="320.5" as="sourcePoint"/>
                        <mxPoint x="600" y="172.5" as="targetPoint"/>
                        <Array as="points">
                            <mxPoint x="270" y="320.5"/>
                            <mxPoint x="270" y="370.5"/>
                            <mxPoint x="517" y="370.5"/>
                            <mxPoint x="517" y="172.5"/>
                        </Array>
                    </mxGeometry>
                </mxCell>
                <mxCell id="74" value="inst" style="text;html=1;align=center;verticalAlign=middle;resizable=0;points=[];autosize=1;strokeColor=none;fillColor=none;fontSize=9;fontColor=#000000;" parent="1" vertex="1">
                    <mxGeometry x="250" y="210" width="30" height="20" as="geometry"/>
                </mxCell>
                <mxCell id="75" value="NPC" style="text;html=1;align=center;verticalAlign=middle;resizable=0;points=[];autosize=1;strokeColor=none;fillColor=none;fontSize=9;fontColor=#000000;" parent="1" vertex="1">
                    <mxGeometry x="240" y="322.5" width="29" height="15" as="geometry"/>
                </mxCell>
                <mxCell id="76" value="" style="endArrow=none;html=1;fontColor=#000000;rounded=0;strokeColor=#000000;" parent="1" edge="1">
                    <mxGeometry width="50" height="50" relative="1" as="geometry">
                        <mxPoint x="600" y="252.5" as="sourcePoint"/>
                        <mxPoint x="600" y="232.5" as="targetPoint"/>
                    </mxGeometry>
                </mxCell>
                <mxCell id="77" value="" style="endArrow=none;html=1;fontColor=#000000;rounded=0;strokeColor=#000000;" parent="1" edge="1">
                    <mxGeometry width="50" height="50" relative="1" as="geometry">
                        <mxPoint x="610" y="262.5" as="sourcePoint"/>
                        <mxPoint x="600" y="252.5" as="targetPoint"/>
                    </mxGeometry>
                </mxCell>
                <mxCell id="78" value="" style="endArrow=none;html=1;rounded=0;fontColor=#000000;strokeColor=#000000;" parent="1" edge="1">
                    <mxGeometry width="50" height="50" relative="1" as="geometry">
                        <mxPoint x="600" y="272.5" as="sourcePoint"/>
                        <mxPoint x="610" y="262.5" as="targetPoint"/>
                    </mxGeometry>
                </mxCell>
                <mxCell id="79" value="" style="endArrow=none;html=1;rounded=0;fontColor=#000000;strokeColor=#000000;" parent="1" edge="1">
                    <mxGeometry width="50" height="50" relative="1" as="geometry">
                        <mxPoint x="600" y="292.5" as="sourcePoint"/>
                        <mxPoint x="600" y="272.5" as="targetPoint"/>
                    </mxGeometry>
                </mxCell>
                <mxCell id="80" value="" style="endArrow=none;html=1;rounded=0;fontColor=#000000;strokeColor=#000000;" parent="1" edge="1">
                    <mxGeometry width="50" height="50" relative="1" as="geometry">
                        <mxPoint x="630" y="252.5" as="sourcePoint"/>
                        <mxPoint x="600" y="232.5" as="targetPoint"/>
                    </mxGeometry>
                </mxCell>
                <mxCell id="81" value="" style="endArrow=none;html=1;rounded=0;fontColor=#000000;strokeColor=#000000;" parent="1" edge="1">
                    <mxGeometry width="50" height="50" relative="1" as="geometry">
                        <mxPoint x="600" y="292.5" as="sourcePoint"/>
                        <mxPoint x="630" y="272.5" as="targetPoint"/>
                    </mxGeometry>
                </mxCell>
                <mxCell id="82" value="" style="endArrow=none;html=1;rounded=0;fontColor=#000000;strokeColor=#000000;" parent="1" edge="1">
                    <mxGeometry width="50" height="50" relative="1" as="geometry">
                        <mxPoint x="630" y="272.5" as="sourcePoint"/>
                        <mxPoint x="630" y="252.5" as="targetPoint"/>
                    </mxGeometry>
                </mxCell>
                <mxCell id="83" value="&lt;font style=&quot;font-size: 10px&quot;&gt;ALU&lt;/font&gt;" style="text;html=1;align=center;verticalAlign=middle;resizable=0;points=[];autosize=1;strokeColor=none;fillColor=none;fontColor=#000000;" parent="1" vertex="1">
                    <mxGeometry x="614" y="274.5" width="30" height="20" as="geometry"/>
                </mxCell>
                <mxCell id="84" value="MUX" style="rounded=0;whiteSpace=wrap;html=1;fontSize=9;fontColor=#000000;strokeColor=#000000;fillColor=none;" parent="1" vertex="1">
                    <mxGeometry x="556" y="297.5" width="24" height="39.5" as="geometry"/>
                </mxCell>
                <mxCell id="86" value="" style="endArrow=classic;html=1;rounded=0;fontSize=9;fontColor=#000000;strokeColor=#000000;exitX=1;exitY=0.5;exitDx=0;exitDy=0;" parent="1" source="84" edge="1">
                    <mxGeometry width="50" height="50" relative="1" as="geometry">
                        <mxPoint x="509" y="362.5" as="sourcePoint"/>
                        <mxPoint x="600" y="282.5" as="targetPoint"/>
                        <Array as="points">
                            <mxPoint x="585" y="317.5"/>
                            <mxPoint x="585" y="282.5"/>
                        </Array>
                    </mxGeometry>
                </mxCell>
                <mxCell id="88" value="shl-26" style="rounded=0;whiteSpace=wrap;html=1;fontSize=9;fontColor=#000000;strokeColor=#000000;fillColor=none;" parent="1" vertex="1">
                    <mxGeometry x="545" y="210" width="30" height="20" as="geometry"/>
                </mxCell>
                <mxCell id="97" value="" style="endArrow=none;html=1;fontColor=#000000;rounded=0;strokeColor=#000000;" parent="1" edge="1">
                    <mxGeometry width="50" height="50" relative="1" as="geometry">
                        <mxPoint x="600" y="182.5" as="sourcePoint"/>
                        <mxPoint x="600" y="162.5" as="targetPoint"/>
                    </mxGeometry>
                </mxCell>
                <mxCell id="98" value="" style="endArrow=none;html=1;fontColor=#000000;rounded=0;strokeColor=#000000;" parent="1" edge="1">
                    <mxGeometry width="50" height="50" relative="1" as="geometry">
                        <mxPoint x="610" y="192.5" as="sourcePoint"/>
                        <mxPoint x="600" y="182.5" as="targetPoint"/>
                    </mxGeometry>
                </mxCell>
                <mxCell id="99" value="" style="endArrow=none;html=1;rounded=0;fontColor=#000000;strokeColor=#000000;" parent="1" edge="1">
                    <mxGeometry width="50" height="50" relative="1" as="geometry">
                        <mxPoint x="600" y="202.5" as="sourcePoint"/>
                        <mxPoint x="610" y="192.5" as="targetPoint"/>
                    </mxGeometry>
                </mxCell>
                <mxCell id="100" value="" style="endArrow=none;html=1;rounded=0;fontColor=#000000;strokeColor=#000000;" parent="1" edge="1">
                    <mxGeometry width="50" height="50" relative="1" as="geometry">
                        <mxPoint x="600" y="222.5" as="sourcePoint"/>
                        <mxPoint x="600" y="202.5" as="targetPoint"/>
                    </mxGeometry>
                </mxCell>
                <mxCell id="101" value="" style="endArrow=none;html=1;rounded=0;fontColor=#000000;strokeColor=#000000;" parent="1" edge="1">
                    <mxGeometry width="50" height="50" relative="1" as="geometry">
                        <mxPoint x="630" y="182.5" as="sourcePoint"/>
                        <mxPoint x="600" y="162.5" as="targetPoint"/>
                    </mxGeometry>
                </mxCell>
                <mxCell id="102" value="" style="endArrow=none;html=1;rounded=0;fontColor=#000000;strokeColor=#000000;" parent="1" edge="1">
                    <mxGeometry width="50" height="50" relative="1" as="geometry">
                        <mxPoint x="600" y="222.5" as="sourcePoint"/>
                        <mxPoint x="630" y="202.5" as="targetPoint"/>
                    </mxGeometry>
                </mxCell>
                <mxCell id="103" value="" style="endArrow=none;html=1;rounded=0;fontColor=#000000;strokeColor=#000000;" parent="1" edge="1">
                    <mxGeometry width="50" height="50" relative="1" as="geometry">
                        <mxPoint x="630" y="202.5" as="sourcePoint"/>
                        <mxPoint x="630" y="182.5" as="targetPoint"/>
                    </mxGeometry>
                </mxCell>
                <mxCell id="104" value="&lt;font style=&quot;font-size: 10px&quot;&gt;Con&lt;/font&gt;" style="text;html=1;align=center;verticalAlign=middle;resizable=0;points=[];autosize=1;strokeColor=none;fillColor=none;fontColor=#000000;" parent="1" vertex="1">
                    <mxGeometry x="614" y="206.5" width="30" height="20" as="geometry"/>
                </mxCell>
                <mxCell id="107" value="" style="endArrow=classic;html=1;rounded=0;fontSize=9;fontColor=#000000;strokeColor=#000000;exitX=1;exitY=0.5;exitDx=0;exitDy=0;" parent="1" source="88" edge="1">
                    <mxGeometry width="50" height="50" relative="1" as="geometry">
                        <mxPoint x="570" y="322.5" as="sourcePoint"/>
                        <mxPoint x="600" y="212.5" as="targetPoint"/>
                        <Array as="points">
                            <mxPoint x="580" y="220"/>
                            <mxPoint x="580" y="212.5"/>
                            <mxPoint x="600" y="212.5"/>
                        </Array>
                    </mxGeometry>
                </mxCell>
                <mxCell id="108" value="" style="endArrow=classic;html=1;rounded=0;fontSize=9;fontColor=#000000;strokeColor=#000000;entryX=0;entryY=0.5;entryDx=0;entryDy=0;" parent="1" target="119" edge="1">
                    <mxGeometry width="50" height="50" relative="1" as="geometry">
                        <mxPoint x="540" y="322.5" as="sourcePoint"/>
                        <mxPoint x="630" y="342.5" as="targetPoint"/>
                        <Array as="points">
                            <mxPoint x="540" y="348"/>
                        </Array>
                    </mxGeometry>
                </mxCell>
                <mxCell id="109" value="" style="shape=waypoint;sketch=0;size=6;pointerEvents=1;points=[];fillColor=none;resizable=0;rotatable=0;perimeter=centerPerimeter;snapToPoint=1;fontSize=9;fontColor=#000000;strokeColor=#000000;" parent="1" vertex="1">
                    <mxGeometry x="520" y="303" width="40" height="40" as="geometry"/>
                </mxCell>
                <mxCell id="110" value="" style="endArrow=none;html=1;rounded=0;fontSize=9;fontColor=#000000;strokeColor=#000000;exitDx=0;exitDy=0;startArrow=none;" parent="1" source="246" target="109" edge="1">
                    <mxGeometry width="50" height="50" relative="1" as="geometry">
                        <mxPoint x="470" y="300" as="sourcePoint"/>
                        <mxPoint x="560" y="300" as="targetPoint"/>
                        <Array as="points">
                            <mxPoint x="540" y="300"/>
                        </Array>
                    </mxGeometry>
                </mxCell>
                <mxCell id="111" value="" style="endArrow=none;html=1;fontColor=#000000;rounded=0;strokeColor=#000000;" parent="1" edge="1">
                    <mxGeometry width="50" height="50" relative="1" as="geometry">
                        <mxPoint x="670" y="310" as="sourcePoint"/>
                        <mxPoint x="670" y="290" as="targetPoint"/>
                    </mxGeometry>
                </mxCell>
                <mxCell id="112" value="" style="endArrow=none;html=1;fontColor=#000000;rounded=0;strokeColor=#000000;" parent="1" edge="1">
                    <mxGeometry width="50" height="50" relative="1" as="geometry">
                        <mxPoint x="680" y="320" as="sourcePoint"/>
                        <mxPoint x="670" y="310" as="targetPoint"/>
                    </mxGeometry>
                </mxCell>
                <mxCell id="113" value="" style="endArrow=none;html=1;rounded=0;fontColor=#000000;strokeColor=#000000;" parent="1" edge="1">
                    <mxGeometry width="50" height="50" relative="1" as="geometry">
                        <mxPoint x="670" y="330" as="sourcePoint"/>
                        <mxPoint x="680" y="320" as="targetPoint"/>
                    </mxGeometry>
                </mxCell>
                <mxCell id="114" value="" style="endArrow=none;html=1;rounded=0;fontColor=#000000;strokeColor=#000000;" parent="1" edge="1">
                    <mxGeometry width="50" height="50" relative="1" as="geometry">
                        <mxPoint x="670" y="350" as="sourcePoint"/>
                        <mxPoint x="670" y="330" as="targetPoint"/>
                    </mxGeometry>
                </mxCell>
                <mxCell id="115" value="" style="endArrow=none;html=1;rounded=0;fontColor=#000000;strokeColor=#000000;" parent="1" edge="1">
                    <mxGeometry width="50" height="50" relative="1" as="geometry">
                        <mxPoint x="700" y="310" as="sourcePoint"/>
                        <mxPoint x="670" y="290" as="targetPoint"/>
                    </mxGeometry>
                </mxCell>
                <mxCell id="116" value="" style="endArrow=none;html=1;rounded=0;fontColor=#000000;strokeColor=#000000;" parent="1" edge="1">
                    <mxGeometry width="50" height="50" relative="1" as="geometry">
                        <mxPoint x="670" y="350" as="sourcePoint"/>
                        <mxPoint x="700" y="330" as="targetPoint"/>
                    </mxGeometry>
                </mxCell>
                <mxCell id="117" value="" style="endArrow=none;html=1;rounded=0;fontColor=#000000;strokeColor=#000000;" parent="1" edge="1">
                    <mxGeometry width="50" height="50" relative="1" as="geometry">
                        <mxPoint x="700" y="330" as="sourcePoint"/>
                        <mxPoint x="700" y="310" as="targetPoint"/>
                    </mxGeometry>
                </mxCell>
                <mxCell id="118" value="&lt;font style=&quot;font-size: 10px&quot;&gt;Adder&lt;/font&gt;" style="text;html=1;align=center;verticalAlign=middle;resizable=0;points=[];autosize=1;strokeColor=none;fillColor=none;fontColor=#000000;" parent="1" vertex="1">
                    <mxGeometry x="680" y="332.5" width="40" height="20" as="geometry"/>
                </mxCell>
                <mxCell id="119" value="shl" style="rounded=0;whiteSpace=wrap;html=1;fontSize=9;fontColor=#000000;strokeColor=#000000;fillColor=none;" parent="1" vertex="1">
                    <mxGeometry x="620" y="337.5" width="30" height="20" as="geometry"/>
                </mxCell>
                <mxCell id="121" value="" style="endArrow=classic;html=1;rounded=0;fontSize=9;fontColor=#000000;exitX=1.004;exitY=0.625;exitDx=0;exitDy=0;exitPerimeter=0;strokeColor=#000000;" parent="1" source="119" edge="1">
                    <mxGeometry width="50" height="50" relative="1" as="geometry">
                        <mxPoint x="650" y="342.5" as="sourcePoint"/>
                        <mxPoint x="670" y="343" as="targetPoint"/>
                        <Array as="points">
                            <mxPoint x="660" y="350"/>
                            <mxPoint x="660" y="343"/>
                        </Array>
                    </mxGeometry>
                </mxCell>
                <mxCell id="122" value="" style="endArrow=classic;html=1;rounded=0;fontSize=9;fontColor=#000000;strokeColor=#000000;" parent="1" edge="1">
                    <mxGeometry width="50" height="50" relative="1" as="geometry">
                        <mxPoint x="550" y="172.5" as="sourcePoint"/>
                        <mxPoint x="670" y="303" as="targetPoint"/>
                        <Array as="points">
                            <mxPoint x="550" y="160"/>
                            <mxPoint x="640" y="160"/>
                            <mxPoint x="640" y="303"/>
                        </Array>
                    </mxGeometry>
                </mxCell>
                <mxCell id="123" value="" style="shape=waypoint;sketch=0;size=6;pointerEvents=1;points=[];fillColor=none;resizable=0;rotatable=0;perimeter=centerPerimeter;snapToPoint=1;fontSize=9;fontColor=#000000;strokeColor=#000000;" parent="1" vertex="1">
                    <mxGeometry x="530" y="152.5" width="40" height="40" as="geometry"/>
                </mxCell>
                <mxCell id="128" value="" style="endArrow=classic;html=1;rounded=0;fontSize=9;fontColor=#000000;strokeColor=#000000;entryX=0;entryY=0.75;entryDx=0;entryDy=0;" parent="1" target="159" edge="1">
                    <mxGeometry width="50" height="50" relative="1" as="geometry">
                        <mxPoint x="700" y="320" as="sourcePoint"/>
                        <mxPoint x="760" y="320" as="targetPoint"/>
                    </mxGeometry>
                </mxCell>
                <mxCell id="130" value="" style="endArrow=classic;html=1;rounded=0;fontSize=9;fontColor=#000000;strokeColor=#000000;entryX=0.009;entryY=0.308;entryDx=0;entryDy=0;entryPerimeter=0;" parent="1" target="155" edge="1">
                    <mxGeometry width="50" height="50" relative="1" as="geometry">
                        <mxPoint x="630" y="190" as="sourcePoint"/>
                        <mxPoint x="760" y="190" as="targetPoint"/>
                    </mxGeometry>
                </mxCell>
                <mxCell id="133" value="jAddr" style="text;html=1;align=center;verticalAlign=middle;resizable=0;points=[];autosize=1;strokeColor=none;fillColor=none;fontSize=9;fontColor=#000000;" parent="1" vertex="1">
                    <mxGeometry x="700" y="172.5" width="40" height="20" as="geometry"/>
                </mxCell>
                <mxCell id="134" value="Z" style="text;html=1;align=center;verticalAlign=middle;resizable=0;points=[];autosize=1;strokeColor=none;fillColor=none;fontSize=9;fontColor=#000000;" parent="1" vertex="1">
                    <mxGeometry x="710" y="245" width="20" height="20" as="geometry"/>
                </mxCell>
                <mxCell id="135" value="result" style="text;html=1;align=center;verticalAlign=middle;resizable=0;points=[];autosize=1;strokeColor=none;fillColor=none;fontSize=9;fontColor=#000000;" parent="1" vertex="1">
                    <mxGeometry x="700" y="272" width="40" height="20" as="geometry"/>
                </mxCell>
                <mxCell id="137" value="bAddr" style="text;html=1;align=center;verticalAlign=middle;resizable=0;points=[];autosize=1;strokeColor=none;fillColor=none;fontSize=9;fontColor=#000000;" parent="1" vertex="1">
                    <mxGeometry x="700" y="305" width="40" height="20" as="geometry"/>
                </mxCell>
                <mxCell id="138" value="" style="endArrow=classic;html=1;rounded=0;fontSize=9;fontColor=#000000;strokeColor=#000000;entryX=0;entryY=0.75;entryDx=0;entryDy=0;" parent="1" target="164" edge="1">
                    <mxGeometry width="50" height="50" relative="1" as="geometry">
                        <mxPoint x="510" y="260" as="sourcePoint"/>
                        <mxPoint x="760" y="290" as="targetPoint"/>
                        <Array as="points">
                            <mxPoint x="510" y="381"/>
                            <mxPoint x="740" y="381"/>
                            <mxPoint x="740" y="295"/>
                        </Array>
                    </mxGeometry>
                </mxCell>
                <mxCell id="139" value="" style="shape=waypoint;sketch=0;size=6;pointerEvents=1;points=[];fillColor=none;resizable=0;rotatable=0;perimeter=centerPerimeter;snapToPoint=1;fontSize=9;fontColor=#000000;strokeColor=#000000;strokeWidth=1;" parent="1" vertex="1">
                    <mxGeometry x="490" y="240" width="40" height="40" as="geometry"/>
                </mxCell>
                <mxCell id="140" value="" style="endArrow=classic;html=1;rounded=0;fontSize=9;fontColor=#000000;strokeColor=#000000;entryX=0;entryY=0.75;entryDx=0;entryDy=0;" parent="1" target="155" edge="1">
                    <mxGeometry width="50" height="50" relative="1" as="geometry">
                        <mxPoint x="517.5" y="171" as="sourcePoint"/>
                        <mxPoint x="758.5" y="220" as="targetPoint"/>
                        <Array as="points">
                            <mxPoint x="517" y="150"/>
                            <mxPoint x="740" y="150"/>
                            <mxPoint x="740" y="209"/>
                        </Array>
                    </mxGeometry>
                </mxCell>
                <mxCell id="141" value="" style="shape=waypoint;sketch=0;size=6;pointerEvents=1;points=[];fillColor=none;resizable=0;rotatable=0;perimeter=centerPerimeter;snapToPoint=1;fontSize=9;fontColor=#000000;strokeColor=#000000;strokeWidth=1;" parent="1" vertex="1">
                    <mxGeometry x="497" y="152.5" width="40" height="40" as="geometry"/>
                </mxCell>
                <mxCell id="146" value="NPC" style="text;html=1;align=center;verticalAlign=middle;resizable=0;points=[];autosize=1;strokeColor=none;fillColor=none;fontSize=9;fontColor=#000000;" parent="1" vertex="1">
                    <mxGeometry x="537" y="175" width="29" height="15" as="geometry"/>
                </mxCell>
                <mxCell id="147" value="index" style="text;html=1;align=center;verticalAlign=middle;resizable=0;points=[];autosize=1;strokeColor=none;fillColor=none;fontSize=9;fontColor=#000000;" parent="1" vertex="1">
                    <mxGeometry x="536" y="195" width="32" height="15" as="geometry"/>
                </mxCell>
                <mxCell id="148" value="A" style="text;html=1;align=center;verticalAlign=middle;resizable=0;points=[];autosize=1;strokeColor=none;fillColor=none;fontSize=9;fontColor=#000000;" parent="1" vertex="1">
                    <mxGeometry x="533.5" y="237" width="16" height="15" as="geometry"/>
                </mxCell>
                <mxCell id="149" value="B" style="text;html=1;align=center;verticalAlign=middle;resizable=0;points=[];autosize=1;strokeColor=none;fillColor=none;fontSize=9;fontColor=#000000;" parent="1" vertex="1">
                    <mxGeometry x="533.5" y="259" width="16" height="15" as="geometry"/>
                </mxCell>
                <mxCell id="154" value="writeData" style="text;html=1;align=center;verticalAlign=middle;resizable=0;points=[];autosize=1;strokeColor=none;fillColor=none;fontSize=9;fontColor=#000000;" parent="1" vertex="1">
                    <mxGeometry x="689" y="346.5" width="48" height="15" as="geometry"/>
                </mxCell>
                <mxCell id="161" style="edgeStyle=orthogonalEdgeStyle;rounded=0;html=1;entryX=0;entryY=0.25;entryDx=0;entryDy=0;fontSize=9;fontColor=#000000;strokeColor=#000000;" parent="1" source="155" target="159" edge="1">
                    <mxGeometry relative="1" as="geometry">
                        <Array as="points">
                            <mxPoint x="829" y="199"/>
                            <mxPoint x="829" y="300"/>
                        </Array>
                    </mxGeometry>
                </mxCell>
                <mxCell id="155" value="MUX" style="rounded=0;whiteSpace=wrap;html=1;fontSize=9;fontColor=#000000;strokeColor=#000000;strokeWidth=1;fillColor=none;" parent="1" vertex="1">
                    <mxGeometry x="770" y="177" width="24" height="43" as="geometry"/>
                </mxCell>
                <mxCell id="158" style="edgeStyle=orthogonalEdgeStyle;rounded=0;html=1;entryX=0.5;entryY=1;entryDx=0;entryDy=0;fontSize=9;fontColor=#000000;strokeColor=#FF0000;" parent="1" source="157" target="155" edge="1">
                    <mxGeometry relative="1" as="geometry">
                        <Array as="points">
                            <mxPoint x="884" y="194"/>
                            <mxPoint x="884" y="238"/>
                            <mxPoint x="782" y="238"/>
                        </Array>
                    </mxGeometry>
                </mxCell>
                <mxCell id="157" value="" style="verticalLabelPosition=bottom;shadow=0;dashed=0;align=center;html=1;verticalAlign=top;shape=mxgraph.electrical.logic_gates.logic_gate;operation=and;fontSize=9;fontColor=#000000;strokeColor=#000000;strokeWidth=1;fillColor=none;" parent="1" vertex="1">
                    <mxGeometry x="849" y="188.5" width="22" height="11.5" as="geometry"/>
                </mxCell>
                <mxCell id="159" value="MUX" style="rounded=0;whiteSpace=wrap;html=1;fontSize=9;fontColor=#000000;strokeColor=#000000;strokeWidth=1;fillColor=none;" parent="1" vertex="1">
                    <mxGeometry x="849" y="290" width="24" height="40" as="geometry"/>
                </mxCell>
                <mxCell id="164" value="&lt;font style=&quot;font-size: 12px&quot;&gt;Data&lt;br&gt;Mem&lt;/font&gt;" style="rounded=0;whiteSpace=wrap;html=1;fontSize=9;fontColor=#000000;strokeColor=#000000;strokeWidth=1;fillColor=none;" parent="1" vertex="1">
                    <mxGeometry x="766" y="264" width="55" height="41" as="geometry"/>
                </mxCell>
                <mxCell id="165" value="" style="endArrow=classic;html=1;rounded=0;fontSize=12;fontColor=#000000;strokeColor=#000000;exitDx=0;exitDy=0;entryX=0;entryY=0.25;entryDx=0;entryDy=0;startArrow=none;" parent="1" source="252" target="172" edge="1">
                    <mxGeometry width="50" height="50" relative="1" as="geometry">
                        <mxPoint x="646" y="340" as="sourcePoint"/>
                        <mxPoint x="907" y="284" as="targetPoint"/>
                        <Array as="points">
                            <mxPoint x="921" y="285"/>
                            <mxPoint x="921" y="305"/>
                        </Array>
                    </mxGeometry>
                </mxCell>
                <mxCell id="166" value="LMD" style="text;html=1;align=center;verticalAlign=middle;resizable=0;points=[];autosize=1;strokeColor=none;fillColor=none;fontSize=12;fontColor=#000000;" parent="1" vertex="1">
                    <mxGeometry x="857" y="267" width="35" height="18" as="geometry"/>
                </mxCell>
                <mxCell id="167" value="" style="endArrow=classic;html=1;rounded=0;fontSize=12;fontColor=#000000;strokeColor=#000000;entryX=0;entryY=0.75;entryDx=0;entryDy=0;" parent="1" source="170" target="172" edge="1">
                    <mxGeometry width="50" height="50" relative="1" as="geometry">
                        <mxPoint x="755" y="270" as="sourcePoint"/>
                        <mxPoint x="949" y="324" as="targetPoint"/>
                        <Array as="points">
                            <mxPoint x="754" y="344"/>
                            <mxPoint x="921" y="344"/>
                            <mxPoint x="921" y="326"/>
                        </Array>
                    </mxGeometry>
                </mxCell>
                <mxCell id="169" value="direct" style="text;html=1;align=center;verticalAlign=middle;resizable=0;points=[];autosize=1;strokeColor=none;fillColor=none;fontSize=12;fontColor=#000000;" parent="1" vertex="1">
                    <mxGeometry x="853" y="328.5" width="39" height="18" as="geometry"/>
                </mxCell>
                <mxCell id="171" value="" style="endArrow=classic;html=1;rounded=0;fontSize=12;fontColor=#000000;strokeColor=#000000;exitX=1;exitY=0.5;exitDx=0;exitDy=0;entryX=0;entryY=0.25;entryDx=0;entryDy=0;" parent="1" source="159" target="2" edge="1">
                    <mxGeometry width="50" height="50" relative="1" as="geometry">
                        <mxPoint x="842" y="328" as="sourcePoint"/>
                        <mxPoint x="956" y="224" as="targetPoint"/>
                        <Array as="points">
                            <mxPoint x="893" y="310"/>
                            <mxPoint x="893" y="209"/>
                            <mxPoint x="928" y="209"/>
                            <mxPoint x="928" y="111"/>
                            <mxPoint x="55" y="111"/>
                            <mxPoint x="55" y="166"/>
                            <mxPoint x="55" y="215"/>
                        </Array>
                    </mxGeometry>
                </mxCell>
                <mxCell id="172" value="MUX" style="rounded=0;whiteSpace=wrap;html=1;fontSize=9;fontColor=#000000;strokeColor=#000000;strokeWidth=1;fillColor=none;" parent="1" vertex="1">
                    <mxGeometry x="939" y="295.5" width="24" height="40" as="geometry"/>
                </mxCell>
                <mxCell id="173" value="" style="endArrow=classic;html=1;rounded=0;fontSize=12;fontColor=#000000;strokeColor=#000000;exitX=1;exitY=0.5;exitDx=0;exitDy=0;entryX=0.25;entryY=0;entryDx=0;entryDy=0;" parent="1" source="172" target="32" edge="1">
                    <mxGeometry width="50" height="50" relative="1" as="geometry">
                        <mxPoint x="790" y="364" as="sourcePoint"/>
                        <mxPoint x="1011" y="315" as="targetPoint"/>
                        <Array as="points">
                            <mxPoint x="997" y="315"/>
                            <mxPoint x="997" y="127"/>
                            <mxPoint x="426" y="127"/>
                        </Array>
                    </mxGeometry>
                </mxCell>
                <mxCell id="177" value="&lt;b&gt;&lt;font color=&quot;#3399ff&quot; style=&quot;font-size: 20px&quot;&gt;IF&lt;/font&gt;&lt;/b&gt;" style="text;html=1;align=center;verticalAlign=middle;resizable=0;points=[];autosize=1;strokeColor=none;fillColor=none;fontSize=12;fontColor=#000000;" parent="1" vertex="1">
                    <mxGeometry x="202" y="371" width="28" height="21" as="geometry"/>
                </mxCell>
                <mxCell id="178" value="&lt;b&gt;ID&lt;/b&gt;" style="text;html=1;align=center;verticalAlign=middle;resizable=0;points=[];autosize=1;strokeColor=none;fillColor=none;fontSize=20;fontColor=#3399FF;" parent="1" vertex="1">
                    <mxGeometry x="456" y="372.5" width="30" height="28" as="geometry"/>
                </mxCell>
                <mxCell id="179" value="&lt;b&gt;EX&lt;/b&gt;" style="text;html=1;align=center;verticalAlign=middle;resizable=0;points=[];autosize=1;strokeColor=none;fillColor=none;fontSize=20;fontColor=#3399FF;" parent="1" vertex="1">
                    <mxGeometry x="689" y="372.5" width="37" height="28" as="geometry"/>
                </mxCell>
                <mxCell id="181" value="&lt;b&gt;WB&lt;/b&gt;" style="text;html=1;align=center;verticalAlign=middle;resizable=0;points=[];autosize=1;strokeColor=none;fillColor=none;fontSize=20;fontColor=#3399FF;" parent="1" vertex="1">
                    <mxGeometry x="951" y="372.5" width="43" height="28" as="geometry"/>
                </mxCell>
                <mxCell id="197" style="edgeStyle=orthogonalEdgeStyle;rounded=0;html=1;exitX=0;exitY=0.25;exitDx=0;exitDy=0;entryX=0.5;entryY=1;entryDx=0;entryDy=0;fontSize=12;fontColor=#FF0000;strokeColor=#FF0000;" parent="1" source="183" target="48" edge="1">
                    <mxGeometry relative="1" as="geometry">
                        <Array as="points">
                            <mxPoint x="282" y="39"/>
                            <mxPoint x="282" y="354"/>
                            <mxPoint x="320" y="354"/>
                        </Array>
                    </mxGeometry>
                </mxCell>
                <mxCell id="261" style="edgeStyle=none;html=1;exitX=0.75;exitY=1;exitDx=0;exitDy=0;entryX=0.5;entryY=0;entryDx=0;entryDy=0;rounded=0;strokeColor=#FF0000;" edge="1" parent="1" source="183" target="172">
                    <mxGeometry relative="1" as="geometry">
                        <Array as="points">
                            <mxPoint x="595" y="97"/>
                            <mxPoint x="951" y="97"/>
                        </Array>
                    </mxGeometry>
                </mxCell>
                <mxCell id="183" value="&lt;font color=&quot;#000000&quot; style=&quot;font-size: 12px&quot;&gt;MCU&lt;/font&gt;" style="rounded=0;whiteSpace=wrap;html=1;fontSize=20;fontColor=#3399FF;strokeColor=#000000;strokeWidth=2;fillColor=none;" parent="1" vertex="1">
                    <mxGeometry x="539" y="24" width="74" height="60" as="geometry"/>
                </mxCell>
                <mxCell id="184" value="" style="endArrow=classic;html=1;rounded=0;fontSize=20;fontColor=#000000;strokeColor=#FF0000;exitX=0.665;exitY=1.008;exitDx=0;exitDy=0;entryX=0.5;entryY=0;entryDx=0;entryDy=0;exitPerimeter=0;" parent="1" source="183" target="84" edge="1">
                    <mxGeometry width="50" height="50" relative="1" as="geometry">
                        <mxPoint x="346" y="185" as="sourcePoint"/>
                        <mxPoint x="396" y="135" as="targetPoint"/>
                        <Array as="points">
                            <mxPoint x="588" y="266"/>
                            <mxPoint x="568" y="266"/>
                        </Array>
                    </mxGeometry>
                </mxCell>
                <mxCell id="185" value="&lt;font style=&quot;font-size: 10px&quot; color=&quot;#ff0000&quot;&gt;Alusrc&lt;/font&gt;" style="text;html=1;align=center;verticalAlign=middle;resizable=0;points=[];autosize=1;strokeColor=none;fillColor=none;fontSize=20;fontColor=#000000;" parent="1" vertex="1">
                    <mxGeometry x="545" y="80" width="38" height="32" as="geometry"/>
                </mxCell>
                <mxCell id="187" value="" style="endArrow=classic;html=1;rounded=0;fontSize=10;fontColor=#FF0000;strokeColor=#FF0000;entryX=0;entryY=0.25;entryDx=0;entryDy=0;entryPerimeter=0;exitX=1;exitY=0.25;exitDx=0;exitDy=0;" parent="1" source="183" target="157" edge="1">
                    <mxGeometry width="50" height="50" relative="1" as="geometry">
                        <mxPoint x="775" y="194" as="sourcePoint"/>
                        <mxPoint x="825" y="144" as="targetPoint"/>
                        <Array as="points">
                            <mxPoint x="832" y="39"/>
                            <mxPoint x="832" y="191"/>
                        </Array>
                    </mxGeometry>
                </mxCell>
                <mxCell id="188" value="Jump" style="text;html=1;align=center;verticalAlign=middle;resizable=0;points=[];autosize=1;strokeColor=none;fillColor=none;fontSize=10;fontColor=#FF0000;" parent="1" vertex="1">
                    <mxGeometry x="623.5" y="24" width="34" height="16" as="geometry"/>
                </mxCell>
                <mxCell id="189" value="" style="endArrow=classic;html=1;rounded=0;fontSize=10;fontColor=#FF0000;strokeColor=#FF0000;entryX=0.5;entryY=0;entryDx=0;entryDy=0;exitX=1;exitY=0.5;exitDx=0;exitDy=0;" parent="1" source="183" target="159" edge="1">
                    <mxGeometry width="50" height="50" relative="1" as="geometry">
                        <mxPoint x="871" y="180" as="sourcePoint"/>
                        <mxPoint x="921" y="130" as="targetPoint"/>
                        <Array as="points">
                            <mxPoint x="888" y="54"/>
                            <mxPoint x="888" y="256"/>
                            <mxPoint x="861" y="256"/>
                        </Array>
                    </mxGeometry>
                </mxCell>
                <mxCell id="190" value="Branch" style="text;html=1;align=center;verticalAlign=middle;resizable=0;points=[];autosize=1;strokeColor=none;fillColor=none;fontSize=10;fontColor=#FF0000;" parent="1" vertex="1">
                    <mxGeometry x="620" y="40" width="42" height="16" as="geometry"/>
                </mxCell>
                <mxCell id="191" value="" style="endArrow=classic;html=1;rounded=0;fontSize=10;fontColor=#FF0000;strokeColor=#FF0000;exitX=1;exitY=0.75;exitDx=0;exitDy=0;entryX=0.75;entryY=0;entryDx=0;entryDy=0;" parent="1" source="183" target="164" edge="1">
                    <mxGeometry width="50" height="50" relative="1" as="geometry">
                        <mxPoint x="801" y="69" as="sourcePoint"/>
                        <mxPoint x="801" y="261" as="targetPoint"/>
                        <Array as="points">
                            <mxPoint x="807" y="69"/>
                        </Array>
                    </mxGeometry>
                </mxCell>
                <mxCell id="192" value="memW" style="text;html=1;align=center;verticalAlign=middle;resizable=0;points=[];autosize=1;strokeColor=none;fillColor=none;fontSize=10;fontColor=#FF0000;" parent="1" vertex="1">
                    <mxGeometry x="620" y="56" width="42" height="16" as="geometry"/>
                </mxCell>
                <mxCell id="193" value="" style="endArrow=classic;html=1;rounded=0;fontSize=10;fontColor=#FF0000;strokeColor=#FF0000;entryX=0.5;entryY=0;entryDx=0;entryDy=0;exitX=1;exitY=1;exitDx=0;exitDy=0;" parent="1" source="183" target="164" edge="1">
                    <mxGeometry width="50" height="50" relative="1" as="geometry">
                        <mxPoint x="871" y="180" as="sourcePoint"/>
                        <mxPoint x="921" y="130" as="targetPoint"/>
                        <Array as="points">
                            <mxPoint x="743" y="84"/>
                            <mxPoint x="743" y="246"/>
                            <mxPoint x="794" y="246"/>
                        </Array>
                    </mxGeometry>
                </mxCell>
                <mxCell id="194" value="memR" style="text;html=1;align=center;verticalAlign=middle;resizable=0;points=[];autosize=1;strokeColor=none;fillColor=none;fontSize=10;fontColor=#FF0000;" parent="1" vertex="1">
                    <mxGeometry x="621.5" y="68" width="39" height="16" as="geometry"/>
                </mxCell>
                <mxCell id="195" value="" style="endArrow=classic;html=1;rounded=0;fontSize=16;fontColor=#FF0000;strokeColor=#FF0000;entryX=0.75;entryY=0;entryDx=0;entryDy=0;exitX=0;exitY=0.75;exitDx=0;exitDy=0;" parent="1" source="183" target="32" edge="1">
                    <mxGeometry width="50" height="50" relative="1" as="geometry">
                        <mxPoint x="335" y="374" as="sourcePoint"/>
                        <mxPoint x="385" y="324" as="targetPoint"/>
                        <Array as="points">
                            <mxPoint x="459" y="69"/>
                        </Array>
                    </mxGeometry>
                </mxCell>
                <mxCell id="196" value="&lt;font style=&quot;font-size: 12px&quot;&gt;WE&lt;/font&gt;" style="text;html=1;align=center;verticalAlign=middle;resizable=0;points=[];autosize=1;strokeColor=none;fillColor=none;fontSize=16;fontColor=#FF0000;" parent="1" vertex="1">
                    <mxGeometry x="468" y="63.5" width="29" height="25" as="geometry"/>
                </mxCell>
                <mxCell id="198" value="aluOp" style="text;html=1;align=center;verticalAlign=middle;resizable=0;points=[];autosize=1;strokeColor=none;fillColor=none;fontSize=12;fontColor=#FF0000;" parent="1" vertex="1">
                    <mxGeometry x="460.5" y="22" width="42" height="18" as="geometry"/>
                </mxCell>
                <mxCell id="203" value="" style="endArrow=classic;html=1;rounded=0;fontSize=12;fontColor=#FF0000;strokeColor=#FF0000;entryX=0.5;entryY=1;entryDx=0;entryDy=0;" parent="1" target="2" edge="1">
                    <mxGeometry width="50" height="50" relative="1" as="geometry">
                        <mxPoint x="110" y="285" as="sourcePoint"/>
                        <mxPoint x="379" y="251" as="targetPoint"/>
                    </mxGeometry>
                </mxCell>
                <mxCell id="204" value="CLK" style="text;html=1;align=center;verticalAlign=middle;resizable=0;points=[];autosize=1;strokeColor=none;fillColor=none;fontSize=12;fontColor=#FF0000;" parent="1" vertex="1">
                    <mxGeometry x="93.5" y="283.5" width="33" height="18" as="geometry"/>
                </mxCell>
                <mxCell id="205" value="CLK" style="text;html=1;align=center;verticalAlign=middle;resizable=0;points=[];autosize=1;strokeColor=none;fillColor=none;fontSize=12;fontColor=#FF0000;" parent="1" vertex="1">
                    <mxGeometry x="426" y="188.5" width="33" height="18" as="geometry"/>
                </mxCell>
                <mxCell id="206" value="" style="endArrow=classic;html=1;rounded=0;fontSize=12;fontColor=#FF0000;strokeColor=#FF0000;entryX=0.5;entryY=0;entryDx=0;entryDy=0;" parent="1" source="205" target="32" edge="1">
                    <mxGeometry width="50" height="50" relative="1" as="geometry">
                        <mxPoint x="329" y="301" as="sourcePoint"/>
                        <mxPoint x="379" y="251" as="targetPoint"/>
                    </mxGeometry>
                </mxCell>
                <mxCell id="207" value="" style="endArrow=classic;html=1;rounded=0;fontSize=12;fontColor=#FF0000;strokeColor=#FF0000;" parent="1" edge="1">
                    <mxGeometry width="50" height="50" relative="1" as="geometry">
                        <mxPoint x="787.5" y="325" as="sourcePoint"/>
                        <mxPoint x="787.36" y="305" as="targetPoint"/>
                    </mxGeometry>
                </mxCell>
                <mxCell id="208" value="CLK" style="text;html=1;align=center;verticalAlign=middle;resizable=0;points=[];autosize=1;strokeColor=none;fillColor=none;fontSize=12;fontColor=#FF0000;" parent="1" vertex="1">
                    <mxGeometry x="770" y="322.5" width="33" height="18" as="geometry"/>
                </mxCell>
                <mxCell id="209" value="&lt;font color=&quot;#000000&quot;&gt;opcode&lt;/font&gt;" style="text;html=1;align=center;verticalAlign=middle;resizable=0;points=[];autosize=1;strokeColor=none;fillColor=none;fontSize=12;fontColor=#FF0000;" parent="1" vertex="1">
                    <mxGeometry x="460.5" y="38" width="49" height="18" as="geometry"/>
                </mxCell>
                <mxCell id="210" value="" style="shape=waypoint;sketch=0;size=6;pointerEvents=1;points=[];fillColor=#FF0000;resizable=0;rotatable=0;perimeter=centerPerimeter;snapToPoint=1;fontSize=12;fontColor=#ffffff;strokeColor=#FF0000;strokeWidth=1;" parent="1" vertex="1">
                    <mxGeometry x="268" y="334" width="40" height="40" as="geometry"/>
                </mxCell>
                <mxCell id="212" value="" style="shape=waypoint;sketch=0;size=6;pointerEvents=1;points=[];fillColor=#1ba1e2;resizable=0;rotatable=0;perimeter=centerPerimeter;snapToPoint=1;fontSize=12;fontColor=#ffffff;strokeColor=#006EAF;strokeWidth=1;" parent="1" vertex="1">
                    <mxGeometry x="268" y="250" width="40" height="40" as="geometry"/>
                </mxCell>
                <mxCell id="213" value="" style="shape=waypoint;sketch=0;size=6;pointerEvents=1;points=[];fillColor=#1ba1e2;resizable=0;rotatable=0;perimeter=centerPerimeter;snapToPoint=1;fontSize=12;fontColor=#ffffff;strokeColor=#006EAF;strokeWidth=1;" parent="1" vertex="1">
                    <mxGeometry x="340" y="170" width="40" height="40" as="geometry"/>
                </mxCell>
                <mxCell id="214" value="" style="shape=waypoint;sketch=0;size=6;pointerEvents=1;points=[];fillColor=#1ba1e2;resizable=0;rotatable=0;perimeter=centerPerimeter;snapToPoint=1;fontSize=12;fontColor=#ffffff;strokeColor=#006EAF;strokeWidth=1;" parent="1" vertex="1">
                    <mxGeometry x="406" y="170" width="40" height="40" as="geometry"/>
                </mxCell>
                <mxCell id="215" value="" style="shape=waypoint;sketch=0;size=6;pointerEvents=1;points=[];fillColor=none;resizable=0;rotatable=0;perimeter=centerPerimeter;snapToPoint=1;fontSize=12;fontColor=#000000;strokeColor=#FF0000;strokeWidth=1;" parent="1" vertex="1">
                    <mxGeometry x="438.5" y="170" width="40" height="40" as="geometry"/>
                </mxCell>
                <mxCell id="216" value="" style="shape=waypoint;sketch=0;size=6;pointerEvents=1;points=[];fillColor=none;resizable=0;rotatable=0;perimeter=centerPerimeter;snapToPoint=1;fontSize=12;fontColor=#000000;strokeColor=#FF0000;strokeWidth=1;" parent="1" vertex="1">
                    <mxGeometry x="568" y="135" width="40" height="40" as="geometry"/>
                </mxCell>
                <mxCell id="217" value="" style="shape=waypoint;sketch=0;size=6;pointerEvents=1;points=[];fillColor=#1ba1e2;resizable=0;rotatable=0;perimeter=centerPerimeter;snapToPoint=1;fontSize=12;fontColor=#ffffff;strokeColor=#006EAF;strokeWidth=1;" parent="1" vertex="1">
                    <mxGeometry x="509.5" y="152.5" width="40" height="40" as="geometry"/>
                </mxCell>
                <mxCell id="218" value="" style="shape=waypoint;sketch=0;size=6;pointerEvents=1;points=[];fillColor=#1ba1e2;resizable=0;rotatable=0;perimeter=centerPerimeter;snapToPoint=1;fontSize=12;fontColor=#ffffff;strokeColor=#006EAF;strokeWidth=1;" parent="1" vertex="1">
                    <mxGeometry x="509.5" y="200" width="40" height="40" as="geometry"/>
                </mxCell>
                <mxCell id="221" value="" style="shape=waypoint;sketch=0;size=6;pointerEvents=1;points=[];fillColor=#1ba1e2;resizable=0;rotatable=0;perimeter=centerPerimeter;snapToPoint=1;fontSize=12;fontColor=#ffffff;strokeColor=#006EAF;strokeWidth=1;" parent="1" vertex="1">
                    <mxGeometry x="509.5" y="220" width="40" height="40" as="geometry"/>
                </mxCell>
                <mxCell id="222" value="" style="shape=waypoint;sketch=0;size=6;pointerEvents=1;points=[];fillColor=#1ba1e2;resizable=0;rotatable=0;perimeter=centerPerimeter;snapToPoint=1;fontSize=12;fontColor=#ffffff;strokeColor=#006EAF;strokeWidth=1;" parent="1" vertex="1">
                    <mxGeometry x="509.5" y="240" width="40" height="40" as="geometry"/>
                </mxCell>
                <mxCell id="223" value="" style="shape=waypoint;sketch=0;size=6;pointerEvents=1;points=[];fillColor=#1ba1e2;resizable=0;rotatable=0;perimeter=centerPerimeter;snapToPoint=1;fontSize=12;fontColor=#ffffff;strokeColor=#006EAF;strokeWidth=1;" parent="1" vertex="1">
                    <mxGeometry x="509.5" y="280" width="40" height="40" as="geometry"/>
                </mxCell>
                <mxCell id="225" value="" style="shape=waypoint;sketch=0;size=6;pointerEvents=1;points=[];fillColor=#1ba1e2;resizable=0;rotatable=0;perimeter=centerPerimeter;snapToPoint=1;fontSize=12;fontColor=#ffffff;strokeColor=#006EAF;strokeWidth=1;" parent="1" vertex="1">
                    <mxGeometry x="509.5" y="310" width="40" height="40" as="geometry"/>
                </mxCell>
                <mxCell id="226" value="" style="shape=waypoint;sketch=0;size=6;pointerEvents=1;points=[];fillColor=#1ba1e2;resizable=0;rotatable=0;perimeter=centerPerimeter;snapToPoint=1;fontSize=12;fontColor=#ffffff;strokeColor=#006EAF;strokeWidth=1;" parent="1" vertex="1">
                    <mxGeometry x="726" y="170" width="40" height="40" as="geometry"/>
                </mxCell>
                <mxCell id="227" value="" style="shape=waypoint;sketch=0;size=6;pointerEvents=1;points=[];fillColor=#1ba1e2;resizable=0;rotatable=0;perimeter=centerPerimeter;snapToPoint=1;fontSize=12;fontColor=#ffffff;strokeColor=#006EAF;strokeWidth=1;" parent="1" vertex="1">
                    <mxGeometry x="726" y="188.5" width="40" height="40" as="geometry"/>
                </mxCell>
                <mxCell id="230" value="" style="shape=waypoint;sketch=0;size=6;pointerEvents=1;points=[];fillColor=#1ba1e2;resizable=0;rotatable=0;perimeter=centerPerimeter;snapToPoint=1;fontSize=12;fontColor=#ffffff;strokeColor=#006EAF;strokeWidth=1;" parent="1" vertex="1">
                    <mxGeometry x="726" y="275" width="40" height="40" as="geometry"/>
                </mxCell>
                <mxCell id="232" value="" style="shape=waypoint;sketch=0;size=6;pointerEvents=1;points=[];fillColor=#1ba1e2;resizable=0;rotatable=0;perimeter=centerPerimeter;snapToPoint=1;fontSize=12;fontColor=#ffffff;strokeColor=#006EAF;strokeWidth=1;" parent="1" vertex="1">
                    <mxGeometry x="726" y="300" width="40" height="40" as="geometry"/>
                </mxCell>
                <mxCell id="234" value="" style="shape=waypoint;sketch=0;size=6;pointerEvents=1;points=[];fillColor=#1ba1e2;resizable=0;rotatable=0;perimeter=centerPerimeter;snapToPoint=1;fontSize=12;fontColor=#ffffff;strokeColor=#FF0000;strokeWidth=1;" parent="1" vertex="1">
                    <mxGeometry x="787" y="135" width="40" height="40" as="geometry"/>
                </mxCell>
                <mxCell id="235" value="" style="shape=waypoint;sketch=0;size=6;pointerEvents=1;points=[];fillColor=#1ba1e2;resizable=0;rotatable=0;perimeter=centerPerimeter;snapToPoint=1;fontSize=12;fontColor=#ffffff;strokeColor=#FF0000;strokeWidth=1;" parent="1" vertex="1">
                    <mxGeometry x="813" y="135" width="40" height="40" as="geometry"/>
                </mxCell>
                <mxCell id="236" value="" style="shape=waypoint;sketch=0;size=6;pointerEvents=1;points=[];fillColor=#1ba1e2;resizable=0;rotatable=0;perimeter=centerPerimeter;snapToPoint=1;fontSize=12;fontColor=#ffffff;strokeColor=#FF0000;strokeWidth=1;" parent="1" vertex="1">
                    <mxGeometry x="868" y="135" width="40" height="40" as="geometry"/>
                </mxCell>
                <mxCell id="238" value="" style="shape=waypoint;sketch=0;size=6;pointerEvents=1;points=[];fillColor=#1ba1e2;resizable=0;rotatable=0;perimeter=centerPerimeter;snapToPoint=1;fontSize=12;fontColor=#ffffff;strokeColor=#006EAF;strokeWidth=1;" parent="1" vertex="1">
                    <mxGeometry x="716" y="170" width="40" height="40" as="geometry"/>
                </mxCell>
                <mxCell id="239" value="" style="shape=waypoint;sketch=0;size=6;pointerEvents=1;points=[];fillColor=#1ba1e2;resizable=0;rotatable=0;perimeter=centerPerimeter;snapToPoint=1;fontSize=12;fontColor=#ffffff;strokeColor=#006EAF;strokeWidth=1;" parent="1" vertex="1">
                    <mxGeometry x="716" y="240" width="40" height="40" as="geometry"/>
                </mxCell>
                <mxCell id="241" value="" style="shape=waypoint;sketch=0;size=6;pointerEvents=1;points=[];fillColor=#1ba1e2;resizable=0;rotatable=0;perimeter=centerPerimeter;snapToPoint=1;fontSize=12;fontColor=#ffffff;strokeColor=#006EAF;strokeWidth=1;" parent="1" vertex="1">
                    <mxGeometry x="716" y="250" width="40" height="40" as="geometry"/>
                </mxCell>
                <mxCell id="242" value="" style="shape=waypoint;sketch=0;size=6;pointerEvents=1;points=[];fillColor=#1ba1e2;resizable=0;rotatable=0;perimeter=centerPerimeter;snapToPoint=1;fontSize=12;fontColor=#ffffff;strokeColor=#006EAF;strokeWidth=1;" parent="1" vertex="1">
                    <mxGeometry x="716" y="300" width="40" height="40" as="geometry"/>
                </mxCell>
                <mxCell id="244" value="" style="shape=waypoint;sketch=0;size=6;pointerEvents=1;points=[];fillColor=#1ba1e2;resizable=0;rotatable=0;perimeter=centerPerimeter;snapToPoint=1;fontSize=12;fontColor=#ffffff;strokeColor=#006EAF;strokeWidth=1;" parent="1" vertex="1">
                    <mxGeometry x="482" y="220" width="40" height="40" as="geometry"/>
                </mxCell>
                <mxCell id="243" value="" style="shape=waypoint;sketch=0;size=6;pointerEvents=1;points=[];fillColor=#1ba1e2;resizable=0;rotatable=0;perimeter=centerPerimeter;snapToPoint=1;fontSize=12;fontColor=#ffffff;strokeColor=#006EAF;strokeWidth=1;" parent="1" vertex="1">
                    <mxGeometry x="776" y="238.5" width="40" height="40" as="geometry"/>
                </mxCell>
                <mxCell id="245" value="" style="shape=waypoint;sketch=0;size=6;pointerEvents=1;points=[];fillColor=#1ba1e2;resizable=0;rotatable=0;perimeter=centerPerimeter;snapToPoint=1;fontSize=12;fontColor=#ffffff;strokeColor=#006EAF;strokeWidth=1;" parent="1" vertex="1">
                    <mxGeometry x="482" y="240" width="40" height="40" as="geometry"/>
                </mxCell>
                <mxCell id="247" value="" style="endArrow=none;html=1;rounded=0;fontSize=9;fontColor=#000000;strokeColor=#000000;exitX=1;exitY=0.5;exitDx=0;exitDy=0;" parent="1" source="43" target="246" edge="1">
                    <mxGeometry width="50" height="50" relative="1" as="geometry">
                        <mxPoint x="470.0000000000001" y="300" as="sourcePoint"/>
                        <mxPoint x="540.0000000000001" y="323" as="targetPoint"/>
                        <Array as="points"/>
                    </mxGeometry>
                </mxCell>
                <mxCell id="246" value="" style="shape=waypoint;sketch=0;size=6;pointerEvents=1;points=[];fillColor=#1ba1e2;resizable=0;rotatable=0;perimeter=centerPerimeter;snapToPoint=1;fontSize=12;fontColor=#ffffff;strokeColor=#006EAF;strokeWidth=1;" parent="1" vertex="1">
                    <mxGeometry x="482" y="280" width="40" height="40" as="geometry"/>
                </mxCell>
                <mxCell id="248" value="" style="shape=waypoint;sketch=0;size=6;pointerEvents=1;points=[];fillColor=#1ba1e2;resizable=0;rotatable=0;perimeter=centerPerimeter;snapToPoint=1;fontSize=12;fontColor=#ffffff;strokeColor=#006EAF;strokeWidth=1;" parent="1" vertex="1">
                    <mxGeometry x="482" y="300" width="40" height="40" as="geometry"/>
                </mxCell>
                <mxCell id="249" value="" style="shape=waypoint;sketch=0;size=6;pointerEvents=1;points=[];fillColor=#1ba1e2;resizable=0;rotatable=0;perimeter=centerPerimeter;snapToPoint=1;fontSize=12;fontColor=#ffffff;strokeColor=#006EAF;strokeWidth=1;" parent="1" vertex="1">
                    <mxGeometry x="482" y="310" width="40" height="40" as="geometry"/>
                </mxCell>
                <mxCell id="250" value="" style="shape=waypoint;sketch=0;size=6;pointerEvents=1;points=[];fillColor=#1ba1e2;resizable=0;rotatable=0;perimeter=centerPerimeter;snapToPoint=1;fontSize=12;fontColor=#ffffff;strokeColor=#006EAF;strokeWidth=1;" parent="1" vertex="1">
                    <mxGeometry x="258" y="250" width="40" height="40" as="geometry"/>
                </mxCell>
                <mxCell id="251" value="" style="shape=waypoint;sketch=0;size=6;pointerEvents=1;points=[];fillColor=#1ba1e2;resizable=0;rotatable=0;perimeter=centerPerimeter;snapToPoint=1;fontSize=12;fontColor=#ffffff;strokeColor=#006EAF;strokeWidth=1;" parent="1" vertex="1">
                    <mxGeometry x="250" y="340" width="40" height="40" as="geometry"/>
                </mxCell>
                <mxCell id="254" value="" style="endArrow=none;html=1;rounded=0;fontSize=12;fontColor=#000000;strokeColor=#000000;exitX=1;exitY=0.5;exitDx=0;exitDy=0;entryDx=0;entryDy=0;" parent="1" source="164" target="252" edge="1">
                    <mxGeometry width="50" height="50" relative="1" as="geometry">
                        <mxPoint x="821" y="284.49999999999994" as="sourcePoint"/>
                        <mxPoint x="939" y="305.49999999999994" as="targetPoint"/>
                        <Array as="points"/>
                    </mxGeometry>
                </mxCell>
                <mxCell id="252" value="" style="shape=waypoint;sketch=0;size=6;pointerEvents=1;points=[];fillColor=#1ba1e2;resizable=0;rotatable=0;perimeter=centerPerimeter;snapToPoint=1;fontSize=12;fontColor=#ffffff;strokeColor=#006EAF;strokeWidth=1;" parent="1" vertex="1">
                    <mxGeometry x="884" y="265" width="40" height="40" as="geometry"/>
                </mxCell>
                <mxCell id="255" value="" style="shape=waypoint;sketch=0;size=6;pointerEvents=1;points=[];fillColor=#1ba1e2;resizable=0;rotatable=0;perimeter=centerPerimeter;snapToPoint=1;fontSize=12;fontColor=#ffffff;strokeColor=#006EAF;strokeWidth=1;" parent="1" vertex="1">
                    <mxGeometry x="884" y="325" width="40" height="40" as="geometry"/>
                </mxCell>
                <mxCell id="258" value="" style="shape=waypoint;sketch=0;size=6;pointerEvents=1;points=[];fillColor=#1ba1e2;resizable=0;rotatable=0;perimeter=centerPerimeter;snapToPoint=1;fontSize=12;fontColor=#ffffff;strokeColor=#006EAF;strokeWidth=1;" parent="1" vertex="1">
                    <mxGeometry x="892" y="325" width="40" height="40" as="geometry"/>
                </mxCell>
                <mxCell id="259" value="" style="shape=waypoint;sketch=0;size=6;pointerEvents=1;points=[];fillColor=#1ba1e2;resizable=0;rotatable=0;perimeter=centerPerimeter;snapToPoint=1;fontSize=12;fontColor=#ffffff;strokeColor=#006EAF;strokeWidth=1;" parent="1" vertex="1">
                    <mxGeometry x="892" y="265" width="40" height="40" as="geometry"/>
                </mxCell>
                <mxCell id="260" value="" style="shape=waypoint;sketch=0;size=6;pointerEvents=1;points=[];fillColor=#1ba1e2;resizable=0;rotatable=0;perimeter=centerPerimeter;snapToPoint=1;fontSize=12;fontColor=#ffffff;strokeColor=#006EAF;strokeWidth=1;" parent="1" vertex="1">
                    <mxGeometry x="961" y="295.5" width="40" height="40" as="geometry"/>
                </mxCell>
                <mxCell id="263" value="&lt;font color=&quot;#ff0000&quot; style=&quot;font-size: 10px&quot;&gt;dataSrc&lt;/font&gt;" style="text;html=1;align=center;verticalAlign=middle;resizable=0;points=[];autosize=1;strokeColor=none;fillColor=none;" vertex="1" parent="1">
                    <mxGeometry x="616.5" y="80" width="44" height="19" as="geometry"/>
                </mxCell>
            </root>
        </mxGraphModel>
    </diagram>
</mxfile>